<svg xmlns="http://www.w3.org/2000/svg" height="48" width="48" xmlns:xlink="http://www.w3.org/1999/xlink" viewBox="0 0 140 110">
<defs>
<linearGradient id="a">
<stop offset="0"/>
<stop stop-opacity="0" offset="1"/>
</linearGradient>
<radialGradient id="c" xlink:href="#a" gradientUnits="userSpaceOnUse" cy="17" cx="8" gradientTransform="matrix(9.115 0 0 3.646-2.92 28)" r="8"/>
<radialGradient id="b" xlink:href="#a" gradientUnits="userSpaceOnUse" cy="17" cx="8" gradientTransform="matrix(7.656 0 0 3.646 8.75 25.1)" r="8"/>
</defs>
<ellipse opacity=".5" rx="61.3" ry="29.2" cy="87.1" cx="70" fill="url(#b)"/>
<ellipse opacity=".5" rx="72.92" ry="29.2" cy="90" cx="70" fill="url(#c)"/>
<path d="m55.2 19.76c0 4.24-.84 8.62-2.55 12.52 10.91-3.31 23.91-3.34 34.78.14-3.4-8.82-3.42-20.82 0-29.68-1.05-1.94-12.96-1.68-15.1-1.73-6.58-.17-13.19.39-19.64 1.69 2.67 5 2.56 11.52 2.56 17.1m33 40.3c-12.1 3.1-25.1 1.63-36.4 0-8 12.85-4.73 33-3.12 46.5 13.92 2.68 29.82 4.09 42.6 0 1.51-12.75 5.71-35.3-3.14-46.52m-84.7 8.88c1.58-7.26 4.38-15.56 10.67-20 8.59-6.1 20.73-3.73 24.92-.82-.74-3.86.9-7.88 3.74-10.46-1.95-2.61-4.55-4.86-7.36-6.47-7.97-4.58-18.2-5.32-26.62-1.49-7.67 11.32-9.74 26.2-5.36 39.3zm133 0c-1.58-7.26-4.38-15.56-10.67-20-8.59-6.1-20.73-3.73-24.92-.82.74-3.86-.9-7.88-3.74-10.46 1.95-2.61 4.55-4.86 7.36-6.47 7.97-4.58 18.2-5.32 26.62-1.49 7.67 11.32 9.74 26.2 5.36 39.3" fill="#fff"/>
<path d="m46.67 106.5h46.67v-10.74c-7.64 3.24-37 3.24-46.67.03zm46.66-72.6c-4.82-8.41-13-11-23.33-11s-20.25 4.55-23.33 11c9.49-6.49 40.3-4.8 46.67 0z" fill="#ccc"/>
<path d="m52.6 2.74c-16.38 2.98-35.1 13.96-43.56 26.98 11-4.99 26.2-2.11 33.65 7.87 2.84-2.58 6.48-4.19 10.12-5.29 1.71-3.89 2.66-8.27 2.54-12.52-.17-6.34.54-11.9-2.75-17m-3.75 103c-1.25-10.19-1.88-20.66-1.23-30.92.32-5.14 1.15-11.68 5.17-15.48-5.17-1.56-11.61-4.8-13.52-10.3-1.5-4.36-13.1-4.38-17.2-3.58-11.15 2.18-16.49 12.62-18.71 22.82 6.65 19.8 26 32.55 45.5 37.46m38.61-103c16.37 2.98 35.1 13.96 43.57 26.98-11-4.99-26.2-2.11-33.65 7.87-2.84-2.58-6.48-4.19-10.12-5.29-1.71-3.89-2.66-8.27-2.54-12.52.16-6.34-.55-11.9 2.74-17m3.75 103c1.25-10.19 1.88-20.66 1.23-30.92-.32-5.14-1.14-11.68-5.17-15.48 5.17-1.56 11.61-4.8 13.52-10.3 1.5-4.36 13.1-4.38 17.2-3.58 11.15 2.18 16.49 12.62 18.71 22.82-6.65 19.8-26 32.55-45.5 37.46" fill="#396"/>
<path d="m113.8 24.89c2.45-6.98-4.81-11-10.37-12.7-3.94-1.2-8.1-1.7-12.22-1.7-.19 0-5.9-.02-4.48 1.1 3.49 2.77 8.68 2.87 11.96 6.1 1.93 1.9 12.51 14.6 15.1 7.2zm-87.6 0c-2.45-6.98 4.82-11 10.37-12.7 3.95-1.21 8.1-1.7 12.22-1.7.19 0 5.9-.02 4.48 1.1-3.49 2.77-8.68 2.87-11.96 6.1-1.93 1.9-12.51 14.6-15.1 7.2m69.7 42.73c.09 4.15 12.89-3.11 14.2-3.85 2.63-1.48 13.3-6.54 13.3-10.3 0-7.34-20.47-7.34-20.5.02-.02 5.12-7.12 8.87-7 14.1m-51.94.06c-.09 4.15-12.87-3.14-14.1-3.85-2.61-1.51-13.3-6.54-13.3-10.3 0-7.34 20.47-7.34 20.44-.02-.02 5.06 7.1 8.81 6.95 14.18" fill="#bdc"/>
<g stroke="#069" stroke-width="1.7" fill="none">
<ellipse cy="55" cx="70" rx="69" ry="54"/>
<ellipse cy="46" cx="70" rx="31" ry="16"/>
</g>
<path d="m94.1 97.9c.8 1.66 6.89-.26 7.91-.62 11.77-4.15 21.1-11.75 28.3-21 .73-.9 5.65-9.13 5.65-9.13s-6.26 7.51-6.59 7.91c-9.63 11.84-22 15.75-35.2 22.93m-7.59-70.87c-.41-2.3 14.88-.68 14.16 6.43-.44 4.31-13.52-2.81-14.16-6.43zm-40.55 70.87c-.8 1.66-6.89-.26-7.91-.62-11.76-4.15-20.86-11.37-28.3-21-.74-.89-5.93-9.22-5.93-9.22s6.55 7.59 6.87 8c9.92 11.73 22 15.75 35.2 22.93m7.59-70.87c.41-2.3-14.88-.68-14.16 6.43.44 4.31 13.52-2.81 14.16-6.43zm-1.23 5.47c11.79-1.81 23.68-1.77 35.42 0 .06-5.52-35.4-5.78-35.42 0m-9.25 4.69c-4.78.15-5.85 11.33-4.13 11.1-.69.07 2.6-11 4.13-11.1m53.6-.41c4.6-.06 5.56 10.84 4.75 10.84.12-.16-3.46-10.94-4.75-10.84m-48.3 68.7c14.48.82 28.96 1.12 43.4 0 0 4-43.4 3.74-43.4 0m40.3-102.6c0-2.44-37.2-2.78-37.2.23 0-.45 37.2-.13 37.2-.23" fill="#069"/>
</svg>